<svg width="30" height="30" viewBox="0 0 30 30" fill="none" xmlns="http://www.w3.org/2000/svg">
<path d="M10.8398 17.9133C10.8398 19.5258 12.0773 20.8258 13.6148 20.8258H16.7523C18.0898 20.8258 19.1773 19.6883 19.1773 18.2883C19.1773 16.7633 18.5148 16.2258 17.5273 15.8758L12.4898 14.1258C11.5023 13.7758 10.8398 13.2383 10.8398 11.7133C10.8398 10.3133 11.9273 9.17578 13.2648 9.17578H16.4023C17.9398 9.17578 19.1773 10.4758 19.1773 12.0883" stroke="#81D0DF" stroke-width="1.5" stroke-linecap="round" stroke-linejoin="round"/>
<path d="M15 7.5V22.5" stroke="#81D0DF" stroke-width="1.5" stroke-linecap="round" stroke-linejoin="round"/>
<path fill-rule="evenodd" clip-rule="evenodd" d="M15 27.5C8.09644 27.5 2.5 21.9036 2.5 15C2.5 8.09644 8.09644 2.5 15 2.5C21.9036 2.5 27.5 8.09644 27.5 15C27.5 21.9036 21.9036 27.5 15 27.5Z" stroke="#81D0DF" stroke-width="1.5" stroke-linecap="round" stroke-linejoin="round"/>
</svg>
