<svg width="135" height="135" viewBox="0 0 135 135" fill="none" xmlns="http://www.w3.org/2000/svg">
<rect width="135" height="135" rx="67.5" fill="#81D0DF"/>
<path d="M63.0872 28.5C67.9187 28.4996 72.6985 29.4826 77.1276 31.3877C81.5566 33.2928 85.5399 36.079 88.8283 39.5721C92.1167 43.0652 94.6396 47.1902 96.2393 51.6891C97.8389 56.188 98.4809 60.9641 98.1252 65.719C96.7454 65.0299 95.3012 64.4741 93.813 64.0593C93.995 57.9862 92.3247 51.9991 89.0184 46.8737C85.7121 41.7483 80.9222 37.7207 75.2693 35.3129C69.6164 32.9051 63.361 32.2279 57.3136 33.3692C51.2662 34.5104 45.7054 37.4175 41.3517 41.7137C36.998 46.0099 34.0521 51.4973 32.8956 57.4649C31.7391 63.4325 32.4253 69.6054 34.8653 75.1837C37.3054 80.762 41.3867 85.4886 46.5807 88.7513C51.7747 92.014 57.8419 93.6623 63.9962 93.4827C64.4177 94.969 64.9798 96.3903 65.6736 97.7423C60.9674 98.0795 56.2405 97.4775 51.7751 95.9724C47.3097 94.4673 43.1974 92.0899 39.6835 88.9821C36.1696 85.8743 33.3262 82.0998 31.3229 77.8838C29.3197 73.6679 28.1977 69.0969 28.0238 64.4436C27.85 59.7904 28.628 55.1503 30.3112 50.8002C31.9945 46.4501 34.5486 42.4793 37.8211 39.1246C41.0936 35.77 45.0174 33.1003 49.3584 31.2749C53.6994 29.4494 58.3685 28.5057 63.0872 28.5ZM50.594 73.6837C52.4058 75.4868 54.5966 76.8754 57.0118 77.7514C59.4269 78.6275 62.0076 78.9696 64.5714 78.7537C64.0387 80.1778 63.6461 81.6493 63.399 83.1477C60.4443 83.1924 57.511 82.6478 54.7749 81.5465C52.0387 80.4452 49.5562 78.8099 47.4762 76.7387C47.0656 76.3307 46.8362 75.7785 46.8382 75.2035C46.8403 74.6286 47.0737 74.078 47.4872 73.6728C47.9006 73.2677 48.4602 73.0413 49.0428 73.0433C49.6255 73.0453 50.1835 73.2757 50.594 73.6837ZM74.0654 52.3333C75.23 52.3333 76.347 52.7899 77.1705 53.6025C77.994 54.4152 78.4567 55.5174 78.4567 56.6667C78.4567 57.8159 77.994 58.9181 77.1705 59.7308C76.347 60.5435 75.23 61 74.0654 61C72.9007 61 71.7838 60.5435 70.9603 59.7308C70.1368 58.9181 69.6741 57.8159 69.6741 56.6667C69.6741 55.5174 70.1368 54.4152 70.9603 53.6025C71.7838 52.7899 72.9007 52.3333 74.0654 52.3333ZM52.109 52.3333C53.2736 52.3333 54.3906 52.7899 55.2141 53.6025C56.0376 54.4152 56.5003 55.5174 56.5003 56.6667C56.5003 57.8159 56.0376 58.9181 55.2141 59.7308C54.3906 60.5435 53.2736 61 52.109 61C50.9443 61 49.8274 60.5435 49.0039 59.7308C48.1803 58.9181 47.7177 57.8159 47.7177 56.6667C47.7177 55.5174 48.1803 54.4152 49.0039 53.6025C49.8274 52.7899 50.9443 52.3333 52.109 52.3333ZM107 87C107 92.1717 104.918 97.1316 101.212 100.789C97.5063 104.446 92.4801 106.5 87.2392 106.5C81.9984 106.5 76.9721 104.446 73.2663 100.789C69.5604 97.1316 67.4785 92.1717 67.4785 87C67.4785 81.8283 69.5604 76.8684 73.2663 73.2114C76.9721 69.5545 81.9984 67.5 87.2392 67.5C92.4801 67.5 97.5063 69.5545 101.212 73.2114C104.918 76.8684 107 81.8283 107 87ZM89.4349 78.3333C89.4349 77.7587 89.2036 77.2076 88.7918 76.8013C88.38 76.3949 87.8216 76.1667 87.2392 76.1667C86.6569 76.1667 86.0984 76.3949 85.6867 76.8013C85.2749 77.2076 85.0436 77.7587 85.0436 78.3333V84.8333H78.4567C77.8744 84.8333 77.3159 85.0616 76.9041 85.4679C76.4924 85.8743 76.261 86.4254 76.261 87C76.261 87.5746 76.4924 88.1257 76.9041 88.5321C77.3159 88.9384 77.8744 89.1667 78.4567 89.1667H85.0436V95.6667C85.0436 96.2413 85.2749 96.7924 85.6867 97.1987C86.0984 97.6051 86.6569 97.8333 87.2392 97.8333C87.8216 97.8333 88.38 97.6051 88.7918 97.1987C89.2036 96.7924 89.4349 96.2413 89.4349 95.6667V89.1667H96.0218C96.6041 89.1667 97.1626 88.9384 97.5743 88.5321C97.9861 88.1257 98.2174 87.5746 98.2174 87C98.2174 86.4254 97.9861 85.8743 97.5743 85.4679C97.1626 85.0616 96.6041 84.8333 96.0218 84.8333H89.4349V78.3333Z" fill="#087592"/>
</svg>
