<svg width="32" height="28" viewBox="0 0 32 28" fill="none" xmlns="http://www.w3.org/2000/svg">
<path d="M8.02654 10.3945V13.7662C8.02654 14.4779 7.67987 15.5629 7.26654 16.1695L5.73321 18.3979C4.78654 19.7745 5.43987 21.3029 7.17321 21.8162C12.9199 23.4962 19.1199 23.4962 24.8665 21.8162C26.4799 21.3495 27.1865 19.6812 26.3065 18.3979L24.7732 16.1695C24.3732 15.5629 24.0265 14.4779 24.0265 13.7662V10.3945C24.0265 6.54453 20.4265 3.39453 16.0265 3.39453C11.6132 3.39453 8.02654 6.53286 8.02654 10.3945Z" stroke="#81D0DF" stroke-width="1.5" stroke-linecap="round"/>
<path d="M17.2134 3.50034C15.9334 3.36034 14.7067 3.44201 13.5601 3.73367C13.9467 2.87034 14.9067 2.26367 16.0267 2.26367C17.1467 2.26367 18.1067 2.87034 18.4934 3.73367C18.0801 3.62867 17.6534 3.547 17.2134 3.50034Z" stroke="#81D0DF" stroke-width="1.5" stroke-linecap="round" stroke-linejoin="round"/>
<path d="M20.0266 22.2363C20.0266 24.1613 18.2266 25.7363 16.0266 25.7363C14.9333 25.7363 13.9199 25.3397 13.1999 24.7097C12.4799 24.0797 12.0266 23.193 12.0266 22.2363" stroke="#81D0DF" stroke-width="1.5"/>
</svg>
