<svg width="56" height="56" viewBox="0 0 56 56" fill="none" xmlns="http://www.w3.org/2000/svg">
<path d="M0 8C0 3.58172 3.58172 0 8 0H48C52.4183 0 56 3.58172 56 8V48C56 52.4183 52.4183 56 48 56H8C3.58172 56 0 52.4183 0 48V8Z" fill="#F6F8FA"/>
<path fill-rule="evenodd" clip-rule="evenodd" d="M31.75 22.375C31.75 24.4461 30.0711 26.125 28 26.125C25.9289 26.125 24.25 24.4461 24.25 22.375C24.25 20.3039 25.9289 18.625 28 18.625C30.0711 18.625 31.75 20.3039 31.75 22.375ZM28 28C31.1066 28 33.625 25.4816 33.625 22.375C33.625 19.2684 31.1066 16.75 28 16.75C24.8934 16.75 22.375 19.2684 22.375 22.375C22.375 25.4816 24.8934 28 28 28ZM39.25 37.375C39.25 39.25 37.375 39.25 37.375 39.25H18.625C18.625 39.25 16.75 39.25 16.75 37.375C16.75 35.5 18.625 29.875 28 29.875C37.375 29.875 39.25 35.5 39.25 37.375ZM37.375 37.3685C37.3723 36.9057 37.0867 35.5196 35.8148 34.2477C34.5918 33.0247 32.2921 31.75 28 31.75C23.7079 31.75 21.4082 33.0247 20.1852 34.2477C18.9133 35.5196 18.6277 36.9057 18.625 37.3685H37.375Z" fill="#81D0DF"/>
</svg>
