<svg width="16" height="16" viewBox="0 0 16 16" fill="none" xmlns="http://www.w3.org/2000/svg">
<path d="M12.155 1.37012L9.09525 4.42986L9.50773 6.49227L11.5701 6.90475L14.6299 3.84501L14.6302 3.84489C15.0089 4.73887 15.0995 5.72869 14.8893 6.67657C14.6791 7.62444 14.1787 8.48321 13.4576 9.13333C12.7365 9.78344 11.8306 10.1926 10.8661 10.3037C9.90158 10.4149 8.9264 10.2226 8.0763 9.75363L8.07639 9.75347L3.98675 14.4881C3.6585 14.816 3.21347 15.0001 2.74951 15C2.28555 14.9999 1.84064 14.8155 1.51257 14.4874C1.1845 14.1594 1.00013 13.7144 1 13.2505C0.999868 12.7865 1.18398 12.3415 1.51186 12.0132L6.24647 7.92366L6.24637 7.92371C5.77737 7.0736 5.58507 6.09843 5.69625 5.13392C5.80743 4.1694 6.21655 3.26355 6.86667 2.54245C7.51679 1.82135 8.37556 1.32088 9.32343 1.1107C10.2713 0.900526 11.2611 0.991103 12.1551 1.36982L12.155 1.37012Z" stroke="#087592" stroke-linecap="round" stroke-linejoin="round"/>
</svg>
